# xmcd CD database file
#
# Track frame offsets:
#	150
#	26425
#	40087
#	60186
#	87333
#	99640
#	122535
#	137175
#	155292
#	175171
#
# Disc length: 2533 seconds
#
# Revision: 2
# Processed by: cddbd v1.5.2PL0 Copyright (c) Steve Scherf et al.
# Submitted via: CDex 1.70beta2
#
DISCID=7309e30a
DTITLE=John Mayall - 1982 - Why Worry aka: Road Show Blues - WAV
DYEAR=1982
DGENRE=Blues
TTITLE0=Ridin' On The L and N
TTITLE1=A Big Man
TTITLE2=Road Show
TTITLE3=Mexico City
TTITLE4=Lost And Gone
TTITLE5=Baby What You Want Me To Do
TTITLE6=John Lee Boogie
TTITLE7=Mama Talk To Your Daughter
TTITLE8=Reaching For A Mountain
TTITLE9=Why Worry
EXTD=YEAR: 1982
EXTT0=
EXTT1=
EXTT2=
EXTT3=
EXTT4=
EXTT5=
EXTT6=
EXTT7=
EXTT8=
EXTT9=
PLAYORDER=
